<svg xmlns="http://www.w3.org/2000/svg" xmlns:xlink="http://www.w3.org/1999/xlink" width="421.641" height="641.881" viewBox="0 0 421.641 641.881">
  <defs>
    <filter id="Ellipse_6" x="293.946" y="0" width="73" height="72" filterUnits="userSpaceOnUse">
      <feOffset dy="3" input="SourceAlpha"/>
      <feGaussianBlur stdDeviation="3" result="blur"/>
      <feFlood flood-opacity="0.161" result="color"/>
      <feComposite operator="out" in="SourceGraphic" in2="blur"/>
      <feComposite operator="in" in="color"/>
      <feComposite operator="in" in2="SourceGraphic"/>
    </filter>
  </defs>
  <g id="Group_17" data-name="Group 17" transform="translate(-978.77 -370.339)">
    <path id="Path_26" data-name="Path 26" d="M-1.732,36.95,207.99,9.474l33.632,50.057L-18.994,129.523Z" transform="translate(1027.086 882.697)"/>
    <path id="Path_27" data-name="Path 27" d="M20.351,34.309,226.646,0,257.7,49.431,0,128.222Z" transform="translate(1015.562 771.29) rotate(13)"/>
    <path id="Path_28" data-name="Path 28" d="M22.2,39.027,224.841,0l29.167,49.687L0,135.008Z" transform="translate(1033.683 659.416) rotate(24)"/>
    <path id="Path_29" data-name="Path 29" d="M224.361,36.95,14.638,9.474-18.994,59.531l260.618,69.991Z" transform="translate(1129.466 629.957)"/>
    <path id="Path_30" data-name="Path 30" d="M20.352,93.913l206.3,34.309L257.7,78.792,0,0Z" transform="translate(1392.467 643.485) rotate(167)"/>
    <path id="Path_31" data-name="Path 31" d="M22.2,95.981l202.642,39.027,29.167-49.687L0,0Z" transform="matrix(-0.914, 0.407, -0.407, -0.914, 1400.411, 530.011)"/>
    <g data-type="innerShadowGroup">
      <ellipse id="Ellipse_6-2" data-name="Ellipse 6" cx="36.5" cy="36" rx="36.5" ry="36" transform="translate(1272.716 370.339)"/>
      <g transform="matrix(1, 0, 0, 1, 978.77, 370.34)" filter="url(#Ellipse_6)">
        <ellipse id="Ellipse_6-3" data-name="Ellipse 6" cx="36.5" cy="36" rx="36.5" ry="36" transform="translate(293.95)" fill="#fff"/>
      </g>
    </g>
  </g>
</svg>
