<svg xmlns="http://www.w3.org/2000/svg" xmlns:xlink="http://www.w3.org/1999/xlink" width="809.293" height="778.68" viewBox="0 0 809.293 778.68">
  <defs>
    <filter id="Ellipse_7" x="700.695" y="0" width="62" height="62" filterUnits="userSpaceOnUse">
      <feOffset dy="3" input="SourceAlpha"/>
      <feGaussianBlur stdDeviation="3" result="blur"/>
      <feFlood flood-opacity="0.161" result="color"/>
      <feComposite operator="out" in="SourceGraphic" in2="blur"/>
      <feComposite operator="in" in="color"/>
      <feComposite operator="in" in2="SourceGraphic"/>
    </filter>
  </defs>
  <g id="Group_19" data-name="Group 19" transform="translate(-171.305 -370)">
    <path id="Path_32" data-name="Path 32" d="M-4.26,32.926,174.746,9.474,203.453,52.2-18.994,111.941Z" transform="translate(664.731 806.221)" fill="#fff"/>
    <path id="Path_33" data-name="Path 33" d="M17.371,29.284,193.452,0l26.5,42.191L0,109.443Z" transform="translate(652.112 712.518) rotate(13)" fill="#fff"/>
    <path id="Path_34" data-name="Path 34" d="M18.949,33.311,191.911,0l24.9,42.41L0,115.235Z" transform="translate(667.579 617.029) rotate(24)" fill="#fff"/>
    <text id="super" transform="translate(171.305 916.541)" fill="#fff" font-size="221" font-family="DINCondensed-Bold, DIN Condensed" font-weight="700"><tspan x="0" y="0">super</tspan></text>
    <text id="morpheus" transform="translate(171.305 1084.68)" fill="#fff" font-size="221" font-family="DINCondensed-Bold, DIN Condensed" font-weight="700"><tspan x="0" y="0">morpheus</tspan></text>
    <path id="Path_35" data-name="Path 35" d="M188.72,32.926,9.713,9.474-18.994,52.2l222.448,59.741Z" transform="translate(752.116 590.496)" fill="#fff"/>
    <path id="Path_36" data-name="Path 36" d="M17.371,80.159l176.082,29.285,26.5-42.191L0,0Z" transform="translate(973.817 603.431) rotate(167)" fill="#fff"/>
    <path id="Path_37" data-name="Path 37" d="M18.949,81.924l172.963,33.311,24.9-42.41L0,0Z" transform="matrix(-0.914, 0.407, -0.407, -0.914, 980.598, 506.576)" fill="#fff"/>
    <g data-type="innerShadowGroup">
      <circle id="Ellipse_7-2" data-name="Ellipse 7" cx="31" cy="31" r="31" transform="translate(872 370)" fill="#fff"/>
      <g transform="matrix(1, 0, 0, 1, 171.3, 370)" filter="url(#Ellipse_7)">
        <circle id="Ellipse_7-3" data-name="Ellipse 7" cx="31" cy="31" r="31" transform="translate(700.7)" fill="#fff"/>
      </g>
    </g>
  </g>
</svg>
